<svg width="271" height="225" viewBox="0 0 271 225" fill="none" xmlns="http://www.w3.org/2000/svg">
<g clip-path="url(#clip0_7_73)">
<path d="M157.53 42.2658C165.008 43.5845 170.001 50.716 168.683 58.1946L146.398 184.578C145.08 192.057 137.948 197.051 130.469 195.731C122.991 194.413 117.997 187.282 119.316 179.803L141.601 53.4193C142.919 45.9407 150.051 40.9471 157.53 42.2658ZM103.306 70.3848C108.675 75.7544 108.675 84.4605 103.306 89.8302L74.1375 118.998L103.306 148.167C108.675 153.536 108.675 162.242 103.306 167.612C97.936 172.982 89.23 172.982 83.8603 167.612L44.9694 128.721C42.3908 126.143 40.9421 122.645 40.9421 118.998C40.9421 115.352 42.3908 111.855 44.9694 109.276L83.8603 70.3848C89.23 65.015 97.936 65.015 103.306 70.3848ZM204.139 70.3848L243.03 109.276C245.609 111.855 247.057 115.352 247.057 118.998C247.057 122.645 245.609 126.143 243.03 128.721L204.139 167.612C198.769 172.982 190.063 172.982 184.694 167.612C179.324 162.242 179.324 153.536 184.694 148.167L213.862 118.998L184.694 89.8302C179.324 84.4605 179.324 75.7544 184.694 70.3848C190.063 65.015 198.769 65.015 204.139 70.3848Z" fill="#0E0B20"/>
</g>
<defs>
<clipPath id="clip0_7_73">
<rect width="271" height="225" fill="white"/>
</clipPath>
</defs>
</svg>
