<svg width="620" height="312" viewBox="0 0 620 312" fill="none" xmlns="http://www.w3.org/2000/svg">
<path d="M52.7268 121.251C79.4002 92.5505 112.232 66.6478 149.108 52.2581C190.108 36.2336 225.78 57.65 258.186 81.7222C274.789 94.032 291.115 107.232 309.775 116.261C330.914 126.503 346.405 116.974 363.487 104.475C394.654 81.8365 430.114 65.7843 467.701 57.2994C478.157 54.9157 488.735 53.105 499.389 51.8755C504.564 51.2905 510.909 50.0334 516.093 50.9602C521.276 51.887 523.613 54.8805 526.697 58.7134C542.639 78.53 557.411 99.3918 572.719 119.729C583.383 133.864 603.616 115.269 593.026 101.255C578.585 82.1361 564.175 63.0512 549.796 44.0004C543.723 35.9857 537.093 28.5145 527.085 25.2838C515.817 21.6612 503.083 23.8398 491.721 25.2378C450.959 30.2945 411.614 43.4078 375.978 63.8129C367.017 68.9533 358.347 74.5783 349.916 80.5677C343.66 85.0088 334.927 94.537 326.646 93.4669C317.895 92.3555 308.014 83.8309 300.909 78.9876C290.967 72.2072 281.465 64.8191 271.794 57.6783C237.446 32.2796 197.357 10.3448 153.353 22.0886C107.976 34.2008 65.6842 67.1052 34.2327 100.982C22.2611 113.854 40.691 134.238 52.7259 121.27L52.7268 121.251Z" fill="#0E0B20"/>
<path d="M34.0564 196.959L99.2958 152.181C119.589 138.241 139.617 122.365 161.759 111.357C179.476 102.539 198.667 100.109 214.518 113.797C228.425 125.767 237.423 142.789 248.466 157.197C261.754 174.496 279.853 190.546 303.21 183.853C325.61 177.45 348.577 164.733 367.487 151.377C385.605 138.573 401.734 124.185 424.258 120.202C434.875 118.589 445.598 117.773 456.338 117.76C466.684 117.513 477.329 117.613 486.183 123.715C499.511 132.909 506.772 149.242 515.294 162.513C525.453 178.215 537.448 192.431 555.692 198.575C572.487 204.181 580.98 178.153 564.208 172.47C550.254 167.899 542.375 154.305 535.086 142.406C526.518 128.427 518.082 114.139 505.144 103.726C486.854 88.8064 463.609 89.6939 441.306 91.0373C417.169 92.5117 396.082 97.6997 375.931 111.568C366.902 117.726 358.427 124.675 349.497 130.837C338.37 138.071 326.635 144.325 314.425 149.531C306.218 153.234 294.95 161.094 286.075 156.287C277.603 151.694 271.324 142.178 265.723 134.558C254.208 118.872 244.142 102.016 228.493 89.9078C220.213 83.5878 210.562 79.3017 200.319 77.3957C190.075 75.4898 179.527 76.0174 169.526 78.936C142.995 86.306 120.665 104.352 98.3633 119.671L21.254 172.576C15.1638 176.809 11.8092 183.917 15.4649 191.113C18.5261 197.143 27.9119 201.091 34.0003 196.897L34.0564 196.959Z" fill="#0E0B20"/>
<path d="M21.709 283.363C65.0626 264.876 103.379 237.205 141.169 209.451C156.319 198.375 177.381 177.561 198.099 181.621C217.122 185.347 229.276 205.499 239.914 219.751C252.861 237.191 268.513 253.481 290.725 257.943C300.616 260.173 310.955 259.28 320.315 255.387C330.861 250.81 337.751 242.041 345.886 234.369C361.458 219.701 382.668 212.261 402.483 205.248C421.864 198.293 445.304 190.21 465.718 197.436C476.814 201.365 484.623 210.088 492.742 218.079C501.39 226.812 510.769 234.792 520.776 241.93C541.846 256.616 565.621 266.983 590.726 272.43C607.863 276.167 616.517 250.068 599.243 246.325C576.931 241.611 555.765 232.555 536.954 219.673C518.921 207.277 505.928 188.284 487.065 177.264C465.868 164.879 440.974 165.729 417.87 171.648C395.845 177.207 374.503 185.179 354.231 195.419C345.324 199.887 337.004 205.436 329.457 211.939C321.858 218.634 314.849 230.401 303.848 231.639C282.498 234.048 267.471 211.015 256.654 196.382C244.155 179.472 229.461 161.99 208.364 155.95C185.774 149.468 164.573 159.244 146.22 172.037C101.555 203.163 59.5115 237.492 8.94306 259.041C-7.31162 265.964 5.53274 290.289 21.709 283.363Z" fill="#0E0B20"/>
</svg>
