<svg width="21" height="17" viewBox="0 0 21 17" fill="none" xmlns="http://www.w3.org/2000/svg">
<path d="M7.15837 16.7168H20.5987C20.821 16.7168 21 16.5374 21 16.3155V0.401276C21 0.179371 20.821 0 20.5987 0H0.401276C0.179371 0 0 0.179371 0 0.401276V9.32807V10.9103V16.3151C0 16.537 0.179371 16.7164 0.401276 16.7164H5.55487L7.15837 16.7168ZM0.802553 10.9107V9.32847V0.802553H20.1974V15.9138H7.15837H5.55487H0.802553V10.9107Z" fill="#FAFF00"/>
<path d="M8.47872 15.5017H19.4259C19.6478 15.5017 19.8272 15.3223 19.8272 15.1004V3.22185C19.8272 2.99994 19.6478 2.82057 19.4259 2.82057H1.57315C1.35125 2.82057 1.17188 2.99994 1.17188 3.22185V8.05362V10.7157V15.1008C1.17188 15.3227 1.35125 15.5021 1.57315 15.5021H5.81023H8.47872V15.5017ZM1.97443 10.7157V8.05362V3.62312H19.0247V14.6996H8.47872H5.81023H1.97443V10.7157Z" fill="#FAFF00"/>
<path d="M18.9779 2.22589H19.4458C19.6681 2.22589 19.8471 2.04651 19.8471 1.82461C19.8471 1.6027 19.6681 1.42333 19.4458 1.42333H18.9779C18.756 1.42333 18.5767 1.6027 18.5767 1.82461C18.5767 2.04692 18.7564 2.22589 18.9779 2.22589Z" fill="#FAFF00"/>
<path d="M14.9652 2.22589H15.4331C15.6554 2.22589 15.8344 2.04651 15.8344 1.82461C15.8344 1.6027 15.6554 1.42333 15.4331 1.42333H14.9652C14.7433 1.42333 14.564 1.6027 14.564 1.82461C14.564 2.04692 14.7437 2.22589 14.9652 2.22589Z" fill="#FAFF00"/>
<path d="M16.9716 2.22589H17.4395C17.6618 2.22589 17.8408 2.04651 17.8408 1.82461C17.8408 1.6027 17.6618 1.42333 17.4395 1.42333H16.9716C16.7497 1.42333 16.5703 1.6027 16.5703 1.82461C16.5703 2.04692 16.7501 2.22589 16.9716 2.22589Z" fill="#FAFF00"/>
<path d="M8.13278 11.4552C8.26601 11.4552 8.39642 11.389 8.47307 11.2674C8.59104 11.0796 8.53446 10.8321 8.34707 10.7141L5.86357 9.15151L8.34707 7.58934C8.53486 7.47137 8.59104 7.22378 8.47307 7.03598C8.35509 6.84818 8.1071 6.79281 7.91971 6.90998L4.91013 8.8024C4.8062 8.86741 4.74762 8.97334 4.73157 9.0853C4.72715 9.10817 4.72996 9.12864 4.72916 9.15111C4.72996 9.17398 4.72715 9.19445 4.73157 9.21692C4.74762 9.32928 4.8066 9.43481 4.91013 9.49982L7.91971 11.3926C7.98592 11.4352 8.05975 11.4552 8.13278 11.4552Z" fill="#FAFF00"/>
<path d="M12.5275 11.2855C12.6037 11.4075 12.7346 11.4733 12.8678 11.4733C12.9412 11.4733 13.015 11.4532 13.0809 11.4123L16.0904 9.51948C16.1948 9.45447 16.2529 9.34854 16.269 9.23658C16.2738 9.21371 16.2706 9.19324 16.271 9.17077C16.2706 9.1479 16.2738 9.12743 16.269 9.10496C16.2529 8.99261 16.1936 8.88707 16.0904 8.82206L13.0809 6.92924C12.8943 6.81167 12.6459 6.86785 12.5275 7.05524C12.4099 7.24304 12.4665 7.49063 12.6535 7.6086L15.137 9.17117L12.6535 10.7333C12.4661 10.8501 12.4099 11.0981 12.5275 11.2855Z" fill="#FAFF00"/>
<path d="M9.82256 11.438C9.86148 11.4496 9.90041 11.4552 9.93893 11.4552C10.1115 11.4552 10.2704 11.3441 10.3229 11.1703L11.4766 7.36663C11.5408 7.15476 11.4208 6.93044 11.209 6.86624C10.9967 6.80203 10.7728 6.92202 10.7086 7.13389L9.55491 10.9376C9.4907 11.1499 9.61068 11.3738 9.82256 11.438Z" fill="#FAFF00"/>
</svg>
