<svg width="15" height="14" viewBox="0 0 15 14" fill="none" xmlns="http://www.w3.org/2000/svg">
<path fill-rule="evenodd" clip-rule="evenodd" d="M0.222143 3.71115C0.416839 7.60676 5.94099 12.5618 9.68091 13.7164C12.1887 14.4871 15.9228 12.9625 14.4466 11.5388L12.1103 9.28832C11.7557 8.9436 11.1804 8.98564 10.8346 9.31635L9.49784 10.6111C6.61516 9.09775 5.4063 7.90384 3.82258 5.14328L5.16511 3.84848C5.51091 3.51497 5.54869 2.96006 5.19417 2.61814L2.86072 0.367655C1.56177 -0.890712 0.149495 2.23979 0.222143 3.71115Z" fill="#FAFF00"/>
<path fill-rule="evenodd" clip-rule="evenodd" d="M0.222143 3.71115L3.82548 5.14048L5.16802 3.85128C5.51382 3.51497 5.5516 2.96006 5.19708 2.61814L2.86362 0.367655C1.56177 -0.890711 0.149495 2.23979 0.222143 3.71115Z" fill="#FAFF00"/>
<path fill-rule="evenodd" clip-rule="evenodd" d="M9.68088 13.7164C12.1887 14.4871 15.9228 12.9625 14.4466 11.5388L12.1102 9.28832C11.7557 8.9436 11.1803 8.98564 10.8345 9.31635L9.4978 10.6111L9.67797 13.7136L9.68088 13.7164Z" fill="#FAFF00"/>
</svg>
